<mxfile host="app.diagrams.net" modified="2023-08-06T07:27:16.805Z" agent="Mozilla/5.0 (Macintosh; Intel Mac OS X 10_15_7) AppleWebKit/537.36 (KHTML, like Gecko) Chrome/115.0.0.0 Safari/537.36" etag="HiMTHzk3ygvOH6TiwtrM" version="21.6.6" type="github">
  <diagram name="第 1 页" id="eVeWfjHuFGfGisBtEYPz">
    <mxGraphModel dx="1167" dy="789" grid="1" gridSize="10" guides="1" tooltips="1" connect="1" arrows="1" fold="1" page="1" pageScale="1" pageWidth="827" pageHeight="1169" math="0" shadow="0">
      <root>
        <mxCell id="0" />
        <mxCell id="1" parent="0" />
        <mxCell id="3TqgN2wfFdCJNT3d8BAX-22" style="edgeStyle=orthogonalEdgeStyle;rounded=0;orthogonalLoop=1;jettySize=auto;html=1;exitX=0.5;exitY=1;exitDx=0;exitDy=0;exitPerimeter=0;entryX=0.5;entryY=0;entryDx=0;entryDy=0;" edge="1" parent="1" source="3TqgN2wfFdCJNT3d8BAX-8" target="3TqgN2wfFdCJNT3d8BAX-9">
          <mxGeometry relative="1" as="geometry" />
        </mxCell>
        <mxCell id="3TqgN2wfFdCJNT3d8BAX-8" value="开始" style="strokeWidth=2;html=1;shape=mxgraph.flowchart.start_2;whiteSpace=wrap;" vertex="1" parent="1">
          <mxGeometry x="90" y="40" width="70" height="70" as="geometry" />
        </mxCell>
        <mxCell id="3TqgN2wfFdCJNT3d8BAX-11" value="" style="edgeStyle=orthogonalEdgeStyle;rounded=0;orthogonalLoop=1;jettySize=auto;html=1;" edge="1" parent="1" source="3TqgN2wfFdCJNT3d8BAX-9" target="3TqgN2wfFdCJNT3d8BAX-10">
          <mxGeometry relative="1" as="geometry" />
        </mxCell>
        <mxCell id="3TqgN2wfFdCJNT3d8BAX-26" value="" style="edgeStyle=orthogonalEdgeStyle;rounded=0;orthogonalLoop=1;jettySize=auto;html=1;" edge="1" parent="1" source="3TqgN2wfFdCJNT3d8BAX-9" target="3TqgN2wfFdCJNT3d8BAX-25">
          <mxGeometry relative="1" as="geometry" />
        </mxCell>
        <mxCell id="3TqgN2wfFdCJNT3d8BAX-9" value="页面导航" style="rounded=1;whiteSpace=wrap;html=1;absoluteArcSize=1;arcSize=14;strokeWidth=2;" vertex="1" parent="1">
          <mxGeometry x="55" y="150" width="140" height="60" as="geometry" />
        </mxCell>
        <mxCell id="3TqgN2wfFdCJNT3d8BAX-37" value="" style="edgeStyle=orthogonalEdgeStyle;rounded=0;orthogonalLoop=1;jettySize=auto;html=1;" edge="1" parent="1" source="3TqgN2wfFdCJNT3d8BAX-10" target="3TqgN2wfFdCJNT3d8BAX-36">
          <mxGeometry relative="1" as="geometry" />
        </mxCell>
        <mxCell id="3TqgN2wfFdCJNT3d8BAX-10" value="进入页面" style="rounded=1;whiteSpace=wrap;html=1;absoluteArcSize=1;arcSize=14;strokeWidth=2;" vertex="1" parent="1">
          <mxGeometry x="55" y="290" width="140" height="60" as="geometry" />
        </mxCell>
        <mxCell id="3TqgN2wfFdCJNT3d8BAX-17" value="" style="edgeStyle=orthogonalEdgeStyle;rounded=0;orthogonalLoop=1;jettySize=auto;html=1;" edge="1" parent="1" source="3TqgN2wfFdCJNT3d8BAX-14" target="3TqgN2wfFdCJNT3d8BAX-16">
          <mxGeometry relative="1" as="geometry" />
        </mxCell>
        <mxCell id="3TqgN2wfFdCJNT3d8BAX-14" value="数据请求" style="rounded=1;whiteSpace=wrap;html=1;absoluteArcSize=1;arcSize=14;strokeWidth=2;" vertex="1" parent="1">
          <mxGeometry x="55" y="745" width="140" height="60" as="geometry" />
        </mxCell>
        <mxCell id="3TqgN2wfFdCJNT3d8BAX-19" value="" style="edgeStyle=orthogonalEdgeStyle;rounded=0;orthogonalLoop=1;jettySize=auto;html=1;" edge="1" parent="1" source="3TqgN2wfFdCJNT3d8BAX-16" target="3TqgN2wfFdCJNT3d8BAX-18">
          <mxGeometry relative="1" as="geometry" />
        </mxCell>
        <mxCell id="3TqgN2wfFdCJNT3d8BAX-16" value="数据处理" style="rounded=1;whiteSpace=wrap;html=1;absoluteArcSize=1;arcSize=14;strokeWidth=2;" vertex="1" parent="1">
          <mxGeometry x="55" y="885" width="140" height="60" as="geometry" />
        </mxCell>
        <mxCell id="3TqgN2wfFdCJNT3d8BAX-21" value="" style="edgeStyle=orthogonalEdgeStyle;rounded=0;orthogonalLoop=1;jettySize=auto;html=1;" edge="1" parent="1" source="3TqgN2wfFdCJNT3d8BAX-18" target="3TqgN2wfFdCJNT3d8BAX-20">
          <mxGeometry relative="1" as="geometry" />
        </mxCell>
        <mxCell id="3TqgN2wfFdCJNT3d8BAX-18" value="页面渲染" style="rounded=1;whiteSpace=wrap;html=1;absoluteArcSize=1;arcSize=14;strokeWidth=2;" vertex="1" parent="1">
          <mxGeometry x="55" y="1025" width="140" height="60" as="geometry" />
        </mxCell>
        <mxCell id="3TqgN2wfFdCJNT3d8BAX-20" value="结束" style="ellipse;whiteSpace=wrap;html=1;rounded=1;arcSize=14;strokeWidth=2;" vertex="1" parent="1">
          <mxGeometry x="85" y="1155" width="80" height="80" as="geometry" />
        </mxCell>
        <mxCell id="3TqgN2wfFdCJNT3d8BAX-35" value="" style="edgeStyle=orthogonalEdgeStyle;rounded=0;orthogonalLoop=1;jettySize=auto;html=1;" edge="1" parent="1" source="3TqgN2wfFdCJNT3d8BAX-25" target="3TqgN2wfFdCJNT3d8BAX-34">
          <mxGeometry relative="1" as="geometry" />
        </mxCell>
        <mxCell id="3TqgN2wfFdCJNT3d8BAX-25" value="构建requestParams" style="rounded=1;whiteSpace=wrap;html=1;absoluteArcSize=1;arcSize=14;strokeWidth=2;" vertex="1" parent="1">
          <mxGeometry x="576" y="150" width="140" height="60" as="geometry" />
        </mxCell>
        <mxCell id="3TqgN2wfFdCJNT3d8BAX-31" style="edgeStyle=orthogonalEdgeStyle;rounded=0;orthogonalLoop=1;jettySize=auto;html=1;exitX=0.5;exitY=1;exitDx=0;exitDy=0;entryX=0.5;entryY=0;entryDx=0;entryDy=0;" edge="1" parent="1" source="3TqgN2wfFdCJNT3d8BAX-29" target="3TqgN2wfFdCJNT3d8BAX-14">
          <mxGeometry relative="1" as="geometry" />
        </mxCell>
        <mxCell id="3TqgN2wfFdCJNT3d8BAX-39" value="否" style="edgeLabel;html=1;align=center;verticalAlign=middle;resizable=0;points=[];" vertex="1" connectable="0" parent="3TqgN2wfFdCJNT3d8BAX-31">
          <mxGeometry x="-0.2471" y="2" relative="1" as="geometry">
            <mxPoint x="-2" y="-12" as="offset" />
          </mxGeometry>
        </mxCell>
        <mxCell id="3TqgN2wfFdCJNT3d8BAX-33" value="" style="edgeStyle=orthogonalEdgeStyle;rounded=0;orthogonalLoop=1;jettySize=auto;html=1;" edge="1" parent="1" source="3TqgN2wfFdCJNT3d8BAX-29" target="3TqgN2wfFdCJNT3d8BAX-32">
          <mxGeometry relative="1" as="geometry" />
        </mxCell>
        <mxCell id="3TqgN2wfFdCJNT3d8BAX-40" value="是" style="edgeLabel;html=1;align=center;verticalAlign=middle;resizable=0;points=[];" vertex="1" connectable="0" parent="3TqgN2wfFdCJNT3d8BAX-33">
          <mxGeometry x="-0.05" y="-1" relative="1" as="geometry">
            <mxPoint x="-7" y="1" as="offset" />
          </mxGeometry>
        </mxCell>
        <mxCell id="3TqgN2wfFdCJNT3d8BAX-29" value="预请求打开" style="rhombus;whiteSpace=wrap;html=1;rounded=1;arcSize=14;strokeWidth=2;" vertex="1" parent="1">
          <mxGeometry x="85" y="580" width="80" height="80" as="geometry" />
        </mxCell>
        <mxCell id="3TqgN2wfFdCJNT3d8BAX-41" style="edgeStyle=orthogonalEdgeStyle;rounded=0;orthogonalLoop=1;jettySize=auto;html=1;exitX=0.5;exitY=1;exitDx=0;exitDy=0;entryX=0.5;entryY=0;entryDx=0;entryDy=0;" edge="1" parent="1" source="3TqgN2wfFdCJNT3d8BAX-32" target="3TqgN2wfFdCJNT3d8BAX-14">
          <mxGeometry relative="1" as="geometry" />
        </mxCell>
        <mxCell id="3TqgN2wfFdCJNT3d8BAX-42" value="否" style="edgeLabel;html=1;align=center;verticalAlign=middle;resizable=0;points=[];" vertex="1" connectable="0" parent="3TqgN2wfFdCJNT3d8BAX-41">
          <mxGeometry x="-0.8449" relative="1" as="geometry">
            <mxPoint as="offset" />
          </mxGeometry>
        </mxCell>
        <mxCell id="3TqgN2wfFdCJNT3d8BAX-44" value="" style="edgeStyle=orthogonalEdgeStyle;rounded=0;orthogonalLoop=1;jettySize=auto;html=1;" edge="1" parent="1" source="3TqgN2wfFdCJNT3d8BAX-32" target="3TqgN2wfFdCJNT3d8BAX-43">
          <mxGeometry relative="1" as="geometry" />
        </mxCell>
        <mxCell id="3TqgN2wfFdCJNT3d8BAX-69" value="是" style="edgeLabel;html=1;align=center;verticalAlign=middle;resizable=0;points=[];" vertex="1" connectable="0" parent="3TqgN2wfFdCJNT3d8BAX-44">
          <mxGeometry x="-0.2" y="-1" relative="1" as="geometry">
            <mxPoint as="offset" />
          </mxGeometry>
        </mxCell>
        <mxCell id="3TqgN2wfFdCJNT3d8BAX-32" value="请求参数一致" style="rhombus;whiteSpace=wrap;html=1;rounded=1;arcSize=14;strokeWidth=2;" vertex="1" parent="1">
          <mxGeometry x="200" y="580" width="80" height="80" as="geometry" />
        </mxCell>
        <mxCell id="3TqgN2wfFdCJNT3d8BAX-47" value="" style="edgeStyle=orthogonalEdgeStyle;rounded=0;orthogonalLoop=1;jettySize=auto;html=1;" edge="1" parent="1" source="3TqgN2wfFdCJNT3d8BAX-34" target="3TqgN2wfFdCJNT3d8BAX-46">
          <mxGeometry relative="1" as="geometry" />
        </mxCell>
        <mxCell id="3TqgN2wfFdCJNT3d8BAX-34" value="数据请求" style="rounded=1;whiteSpace=wrap;html=1;absoluteArcSize=1;arcSize=14;strokeWidth=2;" vertex="1" parent="1">
          <mxGeometry x="576" y="370" width="140" height="60" as="geometry" />
        </mxCell>
        <mxCell id="3TqgN2wfFdCJNT3d8BAX-38" style="edgeStyle=orthogonalEdgeStyle;rounded=0;orthogonalLoop=1;jettySize=auto;html=1;exitX=0.5;exitY=1;exitDx=0;exitDy=0;entryX=0.5;entryY=0;entryDx=0;entryDy=0;" edge="1" parent="1" source="3TqgN2wfFdCJNT3d8BAX-36" target="3TqgN2wfFdCJNT3d8BAX-29">
          <mxGeometry relative="1" as="geometry" />
        </mxCell>
        <mxCell id="3TqgN2wfFdCJNT3d8BAX-36" value="构建requestParams" style="rounded=1;whiteSpace=wrap;html=1;absoluteArcSize=1;arcSize=14;strokeWidth=2;" vertex="1" parent="1">
          <mxGeometry x="55" y="430" width="140" height="60" as="geometry" />
        </mxCell>
        <mxCell id="3TqgN2wfFdCJNT3d8BAX-57" style="edgeStyle=orthogonalEdgeStyle;rounded=0;orthogonalLoop=1;jettySize=auto;html=1;exitX=1;exitY=0.5;exitDx=0;exitDy=0;entryX=0;entryY=0.5;entryDx=0;entryDy=0;entryPerimeter=0;" edge="1" parent="1" source="3TqgN2wfFdCJNT3d8BAX-43" target="3TqgN2wfFdCJNT3d8BAX-56">
          <mxGeometry relative="1" as="geometry" />
        </mxCell>
        <mxCell id="3TqgN2wfFdCJNT3d8BAX-65" value="否" style="edgeLabel;html=1;align=center;verticalAlign=middle;resizable=0;points=[];" vertex="1" connectable="0" parent="3TqgN2wfFdCJNT3d8BAX-57">
          <mxGeometry x="-0.1429" relative="1" as="geometry">
            <mxPoint as="offset" />
          </mxGeometry>
        </mxCell>
        <mxCell id="3TqgN2wfFdCJNT3d8BAX-58" style="edgeStyle=orthogonalEdgeStyle;rounded=0;orthogonalLoop=1;jettySize=auto;html=1;exitX=0.5;exitY=1;exitDx=0;exitDy=0;entryX=1;entryY=0.5;entryDx=0;entryDy=0;" edge="1" parent="1" source="3TqgN2wfFdCJNT3d8BAX-43" target="3TqgN2wfFdCJNT3d8BAX-16">
          <mxGeometry relative="1" as="geometry" />
        </mxCell>
        <mxCell id="3TqgN2wfFdCJNT3d8BAX-64" value="是" style="edgeLabel;html=1;align=center;verticalAlign=middle;resizable=0;points=[];" vertex="1" connectable="0" parent="3TqgN2wfFdCJNT3d8BAX-58">
          <mxGeometry x="-0.9208" y="-1" relative="1" as="geometry">
            <mxPoint as="offset" />
          </mxGeometry>
        </mxCell>
        <mxCell id="3TqgN2wfFdCJNT3d8BAX-43" value="预请求返回" style="rhombus;whiteSpace=wrap;html=1;rounded=1;arcSize=14;strokeWidth=2;" vertex="1" parent="1">
          <mxGeometry x="320" y="580" width="80" height="80" as="geometry" />
        </mxCell>
        <mxCell id="3TqgN2wfFdCJNT3d8BAX-62" style="edgeStyle=orthogonalEdgeStyle;rounded=0;orthogonalLoop=1;jettySize=auto;html=1;exitX=0;exitY=0.5;exitDx=0;exitDy=0;entryX=1;entryY=0.5;entryDx=0;entryDy=0;entryPerimeter=0;" edge="1" parent="1" source="3TqgN2wfFdCJNT3d8BAX-46" target="3TqgN2wfFdCJNT3d8BAX-56">
          <mxGeometry relative="1" as="geometry" />
        </mxCell>
        <mxCell id="3TqgN2wfFdCJNT3d8BAX-66" value="是" style="edgeLabel;html=1;align=center;verticalAlign=middle;resizable=0;points=[];" vertex="1" connectable="0" parent="3TqgN2wfFdCJNT3d8BAX-62">
          <mxGeometry x="-0.04" y="1" relative="1" as="geometry">
            <mxPoint as="offset" />
          </mxGeometry>
        </mxCell>
        <mxCell id="3TqgN2wfFdCJNT3d8BAX-46" value="数据缓存" style="rounded=1;whiteSpace=wrap;html=1;absoluteArcSize=1;arcSize=14;strokeWidth=2;" vertex="1" parent="1">
          <mxGeometry x="576" y="590" width="140" height="60" as="geometry" />
        </mxCell>
        <mxCell id="3TqgN2wfFdCJNT3d8BAX-67" style="edgeStyle=orthogonalEdgeStyle;rounded=0;orthogonalLoop=1;jettySize=auto;html=1;exitX=0.5;exitY=1;exitDx=0;exitDy=0;exitPerimeter=0;entryX=1;entryY=0.5;entryDx=0;entryDy=0;" edge="1" parent="1" source="3TqgN2wfFdCJNT3d8BAX-56" target="3TqgN2wfFdCJNT3d8BAX-16">
          <mxGeometry relative="1" as="geometry" />
        </mxCell>
        <mxCell id="3TqgN2wfFdCJNT3d8BAX-68" value="是" style="edgeLabel;html=1;align=center;verticalAlign=middle;resizable=0;points=[];" vertex="1" connectable="0" parent="3TqgN2wfFdCJNT3d8BAX-67">
          <mxGeometry x="-0.9153" y="-1" relative="1" as="geometry">
            <mxPoint as="offset" />
          </mxGeometry>
        </mxCell>
        <mxCell id="3TqgN2wfFdCJNT3d8BAX-56" value="" style="verticalLabelPosition=bottom;verticalAlign=top;html=1;shape=mxgraph.flowchart.summing_function;" vertex="1" parent="1">
          <mxGeometry x="440" y="585" width="70" height="70" as="geometry" />
        </mxCell>
      </root>
    </mxGraphModel>
  </diagram>
</mxfile>
